<mxfile host="app.diagrams.net" modified="2020-05-02T14:47:18.939Z" agent="5.0 (Windows NT 10.0; WOW64) AppleWebKit/537.36 (KHTML, like Gecko) Chrome/72.0.3626.81 Safari/537.36" etag="5feRDHrjT6qe5lLJMj7L" version="13.0.5" type="github">
  <diagram id="QbZ-W3xVzAoOdw1m-jVm" name="第 1 页">
    <mxGraphModel dx="733" dy="457" grid="1" gridSize="10" guides="1" tooltips="1" connect="1" arrows="1" fold="1" page="1" pageScale="1" pageWidth="827" pageHeight="1169" math="0" shadow="0">
      <root>
        <mxCell id="0" />
        <mxCell id="1" parent="0" />
        <mxCell id="nKRuWf7sq5m0DrtrAZkR-4" value="" style="edgeStyle=orthogonalEdgeStyle;rounded=0;orthogonalLoop=1;jettySize=auto;html=1;" edge="1" parent="1" source="nKRuWf7sq5m0DrtrAZkR-1" target="nKRuWf7sq5m0DrtrAZkR-3">
          <mxGeometry relative="1" as="geometry" />
        </mxCell>
        <mxCell id="nKRuWf7sq5m0DrtrAZkR-7" style="edgeStyle=orthogonalEdgeStyle;rounded=0;orthogonalLoop=1;jettySize=auto;html=1;" edge="1" parent="1" source="nKRuWf7sq5m0DrtrAZkR-1" target="nKRuWf7sq5m0DrtrAZkR-6">
          <mxGeometry relative="1" as="geometry" />
        </mxCell>
        <mxCell id="nKRuWf7sq5m0DrtrAZkR-1" value="BirdBase" style="rounded=0;whiteSpace=wrap;html=1;" vertex="1" parent="1">
          <mxGeometry x="200" y="320" width="120" height="60" as="geometry" />
        </mxCell>
        <mxCell id="nKRuWf7sq5m0DrtrAZkR-3" value="FatBird" style="rounded=0;whiteSpace=wrap;html=1;" vertex="1" parent="1">
          <mxGeometry x="380" y="260" width="120" height="60" as="geometry" />
        </mxCell>
        <mxCell id="nKRuWf7sq5m0DrtrAZkR-9" value="" style="edgeStyle=orthogonalEdgeStyle;rounded=0;orthogonalLoop=1;jettySize=auto;html=1;" edge="1" parent="1" source="nKRuWf7sq5m0DrtrAZkR-2" target="nKRuWf7sq5m0DrtrAZkR-8">
          <mxGeometry relative="1" as="geometry" />
        </mxCell>
        <mxCell id="nKRuWf7sq5m0DrtrAZkR-11" style="edgeStyle=orthogonalEdgeStyle;rounded=0;orthogonalLoop=1;jettySize=auto;html=1;" edge="1" parent="1" source="nKRuWf7sq5m0DrtrAZkR-2" target="nKRuWf7sq5m0DrtrAZkR-10">
          <mxGeometry relative="1" as="geometry" />
        </mxCell>
        <mxCell id="nKRuWf7sq5m0DrtrAZkR-2" value="obstacleBase" style="rounded=0;whiteSpace=wrap;html=1;" vertex="1" parent="1">
          <mxGeometry x="200" y="500" width="120" height="60" as="geometry" />
        </mxCell>
        <mxCell id="nKRuWf7sq5m0DrtrAZkR-8" value="Capsule" style="rounded=0;whiteSpace=wrap;html=1;" vertex="1" parent="1">
          <mxGeometry x="380" y="460" width="120" height="60" as="geometry" />
        </mxCell>
        <mxCell id="nKRuWf7sq5m0DrtrAZkR-6" value="ThinBird" style="rounded=0;whiteSpace=wrap;html=1;" vertex="1" parent="1">
          <mxGeometry x="380" y="380" width="120" height="60" as="geometry" />
        </mxCell>
        <mxCell id="nKRuWf7sq5m0DrtrAZkR-10" value="Square" style="rounded=0;whiteSpace=wrap;html=1;" vertex="1" parent="1">
          <mxGeometry x="380" y="555" width="120" height="60" as="geometry" />
        </mxCell>
        <mxCell id="nKRuWf7sq5m0DrtrAZkR-12" value="Score" style="rounded=0;whiteSpace=wrap;html=1;" vertex="1" parent="1">
          <mxGeometry x="380" y="640" width="120" height="60" as="geometry" />
        </mxCell>
        <mxCell id="nKRuWf7sq5m0DrtrAZkR-15" value="" style="edgeStyle=orthogonalEdgeStyle;rounded=0;orthogonalLoop=1;jettySize=auto;html=1;" edge="1" parent="1" source="nKRuWf7sq5m0DrtrAZkR-13" target="nKRuWf7sq5m0DrtrAZkR-12">
          <mxGeometry relative="1" as="geometry" />
        </mxCell>
        <mxCell id="nKRuWf7sq5m0DrtrAZkR-13" value="GameMager" style="rounded=0;whiteSpace=wrap;html=1;" vertex="1" parent="1">
          <mxGeometry x="200" y="640" width="120" height="60" as="geometry" />
        </mxCell>
      </root>
    </mxGraphModel>
  </diagram>
</mxfile>
